<svg width="80" height="80" viewBox="0 0 80 80" fill="none" xmlns="http://www.w3.org/2000/svg">
<rect width="80" height="80" rx="5" fill="#00B37E"/>
<path d="M56.9159 31.7664C56.3567 31.5753 55.7934 31.3974 55.2261 31.2326C55.3202 30.8498 55.4069 30.4648 55.4864 30.0776C56.7661 23.8542 55.9294 18.8404 53.0736 17.19C50.3392 15.6062 45.8548 17.2567 41.3311 21.2029C40.8863 21.5923 40.4506 21.9934 40.0241 22.4061C39.7397 22.1319 39.448 21.8636 39.1491 21.6011C34.4077 17.3814 29.6553 15.604 26.8028 17.26C24.0684 18.847 23.2558 23.56 24.4075 29.4586C24.5227 30.0419 24.6521 30.6227 24.7958 31.2009C24.1231 31.3923 23.4734 31.5968 22.8522 31.8134C17.3003 33.7548 13.75 36.7987 13.75 39.9553C13.75 43.2168 17.5606 46.4872 23.3498 48.4701C23.8194 48.6298 24.2934 48.7782 24.7717 48.9153C24.6164 49.5343 24.479 50.1603 24.3594 50.7933C23.2656 56.5901 24.1188 61.1915 26.8477 62.7687C29.6663 64.3973 34.3945 62.7239 39.0036 58.6879C39.3682 58.3686 39.7328 58.0313 40.0973 57.6762C40.5582 58.1217 41.0321 58.5541 41.5192 58.9734C45.9817 62.8212 50.3884 64.3754 53.113 62.7939C55.9294 61.1598 56.8448 56.2161 55.6559 50.2015C55.5648 49.7422 55.4598 49.2733 55.3409 48.795C55.6734 48.6965 55.999 48.5948 56.3177 48.4898C62.3333 46.4915 66.2522 43.2606 66.2522 39.9586C66.25 36.7867 62.5859 33.7231 56.9159 31.7664ZM42.8066 22.8983C46.6817 19.5175 50.3042 18.1831 51.9558 19.1368C53.7134 20.1529 54.397 24.2501 53.2923 29.6237C53.2194 29.9737 53.1407 30.3226 53.0561 30.6704C50.7435 30.1444 48.3984 29.7732 46.0364 29.5592C44.684 27.6111 43.2015 25.7566 41.5991 24.0084C41.9914 23.6278 42.3931 23.2577 42.8044 22.8983H42.8066ZM29.2517 42.6525C29.7264 43.5712 30.2226 44.4787 30.7403 45.3748C31.2675 46.2892 31.8169 47.1901 32.3886 48.0775C30.7634 47.9008 29.1483 47.6405 27.5498 47.2976C28.0136 45.797 28.5845 44.2384 29.2517 42.6525ZM29.2517 37.3664C28.5955 35.8143 28.0398 34.2875 27.5837 32.8131C29.0822 32.4773 30.6791 32.2028 32.3438 31.995C31.7859 32.8656 31.2493 33.749 30.7337 34.6451C30.2182 35.5413 29.7231 36.4484 29.2484 37.3664H29.2517ZM30.4439 40.01C31.1352 38.5684 31.8796 37.1546 32.6773 35.7684C33.4743 34.383 34.3227 33.0293 35.2225 31.7073C36.7844 31.5892 38.3856 31.5268 40.0033 31.5268C41.6209 31.5268 43.232 31.5892 44.7928 31.7084C45.6831 33.0275 46.5264 34.3764 47.3227 35.7553C48.1189 37.1341 48.8732 38.5414 49.5856 39.9772C48.8827 41.4238 48.1302 42.8435 47.3281 44.2362C46.5326 45.6216 45.6941 46.9793 44.8125 48.3093C43.2539 48.4187 41.6406 48.4789 40 48.4789C38.3594 48.4789 36.7767 48.4275 35.2466 48.3279C34.3402 47.0016 33.4849 45.6421 32.6806 44.2493C31.8764 42.8566 31.1297 41.4435 30.4406 40.01H30.4439ZM49.2695 45.3595C49.7982 44.4422 50.3057 43.5129 50.792 42.5715C51.4587 44.0832 52.0472 45.6281 52.5552 47.2003C50.9379 47.5645 49.3027 47.8437 47.6562 48.037C48.2119 47.1554 48.7496 46.2629 49.2695 45.3595ZM50.7702 37.3675C50.286 36.4451 49.7825 35.5336 49.2597 34.6331C48.7493 33.745 48.2173 32.8678 47.6639 32.0015C49.3384 32.2137 50.9452 32.4959 52.4512 32.8404C51.967 34.3766 51.4059 35.8875 50.7702 37.3675ZM40.0252 25.6151C41.1173 26.8085 42.1486 28.0562 43.115 29.3536C41.0478 29.2551 38.9792 29.2551 36.9091 29.3536C37.9295 28.0039 38.9741 26.7515 40.0252 25.6151ZM27.9316 19.2036C29.6881 18.1842 33.572 19.6411 37.6659 23.28C37.9273 23.5129 38.1909 23.7568 38.4534 24.0095C36.8427 25.7574 35.3498 27.6103 33.9844 29.5559C31.6276 29.7683 29.2872 30.1336 26.9778 30.6497C26.8444 30.113 26.7241 29.5727 26.6169 29.0287C25.627 23.9723 26.2822 20.1606 27.9316 19.2036ZM25.3711 46.7497C24.9336 46.625 24.5016 46.4897 24.075 46.3439C21.5156 45.4689 19.4014 44.327 17.95 43.0834C16.6506 41.9689 15.9922 40.8565 15.9922 39.9553C15.9922 38.0401 18.8425 35.5967 23.5959 33.9397C24.1931 33.7318 24.7954 33.5419 25.4028 33.3698C26.1088 35.6386 26.9638 37.8582 27.9622 40.0143C26.9519 42.2003 26.0863 44.4502 25.3711 46.7497ZM37.5259 56.9948C35.4883 58.7798 33.4473 60.0453 31.6481 60.6829C30.0316 61.255 28.7442 61.2714 27.9666 60.8218C26.3106 59.8648 25.6216 56.169 26.5611 51.2122C26.6727 50.6288 26.8003 50.0455 26.9439 49.4622C29.2764 49.9646 31.6403 50.3077 34.0194 50.4892C35.3981 52.4449 36.9034 54.3083 38.5256 56.0673C38.1997 56.3878 37.8661 56.6962 37.5259 56.9948ZM40.0875 54.4551C39.0244 53.3056 37.9634 52.0336 36.9287 50.6664C37.9343 50.7057 38.958 50.7254 40 50.7254C41.0697 50.7254 42.1284 50.7025 43.1719 50.6554C42.209 51.9736 41.1795 53.2418 40.0875 54.4551ZM53.7069 57.5822C53.3941 59.2709 52.7652 60.3975 51.9875 60.8481C50.3327 61.8084 46.7944 60.5604 42.9794 57.2693C42.5419 56.8931 42.1044 56.4895 41.6592 56.0662C43.2498 54.3003 44.7199 52.4294 46.0594 50.4662C48.4516 50.2635 50.827 49.8963 53.1687 49.367C53.2759 49.8001 53.3707 50.2245 53.4531 50.6401C53.9792 53.2979 54.0547 55.702 53.7069 57.5822ZM55.61 46.3559C55.3234 46.4511 55.0281 46.5429 54.7284 46.6326C53.9942 44.3532 53.1058 42.1263 52.0695 39.9673C53.0669 37.8371 53.9205 35.6425 54.6245 33.3983C55.1616 33.5547 55.6833 33.7187 56.1853 33.8926C61.0438 35.5682 64.0078 38.0489 64.0078 39.9553C64.0078 41.9897 60.8064 44.63 55.61 46.3559Z" fill="#E1E1E6"/>
<path d="M40 44.654C40.9308 44.6571 41.8416 44.3838 42.6171 43.8689C43.3925 43.3539 43.9977 42.6205 44.356 41.7614C44.7143 40.9022 44.8097 39.9561 44.6299 39.0428C44.4502 38.1295 44.0035 37.29 43.3463 36.6307C42.6892 35.9715 41.8512 35.522 40.9385 35.3393C40.0258 35.1566 39.0793 35.2488 38.2191 35.6043C37.3588 35.9599 36.6233 36.5627 36.1059 37.3364C35.5884 38.1102 35.3122 39.0201 35.3122 39.9509C35.3109 40.5676 35.4312 41.1785 35.6661 41.7487C35.901 42.3189 36.246 42.8372 36.6814 43.274C37.1168 43.7108 37.6339 44.0575 38.2034 44.2943C38.7728 44.5311 39.3833 44.6533 40 44.654Z" fill="#E1E1E6"/>
</svg>
